<mxfile host="Electron" modified="2024-05-15T22:02:09.114Z" agent="Mozilla/5.0 (X11; Linux x86_64) AppleWebKit/537.36 (KHTML, like Gecko) draw.io/24.2.5 Chrome/120.0.6099.109 Electron/28.1.0 Safari/537.36" etag="ALNEN4Ls-SV3Klun8bUq" version="24.2.5" type="device">
  <diagram name="Page-1" id="3yHXsXy3GaDdZvMfvjRr">
    <mxGraphModel dx="1674" dy="843" grid="1" gridSize="10" guides="1" tooltips="1" connect="1" arrows="1" fold="1" page="1" pageScale="1" pageWidth="1169" pageHeight="827" math="0" shadow="0">
      <root>
        <mxCell id="0" />
        <mxCell id="1" parent="0" />
        <mxCell id="IpjYhmgJ4ee4G2J0kLjC-1" value="" style="whiteSpace=wrap;html=1;aspect=fixed;fillColor=#000000;" vertex="1" parent="1">
          <mxGeometry x="525" y="354" width="120" height="120" as="geometry" />
        </mxCell>
        <mxCell id="IpjYhmgJ4ee4G2J0kLjC-2" value="" style="ellipse;whiteSpace=wrap;html=1;aspect=fixed;fillColor=none;strokeWidth=2.5;strokeColor=white" vertex="1" parent="1">
          <mxGeometry x="555" y="384" width="60" height="60" as="geometry" />
        </mxCell>
        <mxCell id="IpjYhmgJ4ee4G2J0kLjC-3" value="" style="endArrow=none;html=1;rounded=0;strokeWidth=2.5;strokeColor=white;exitX=1;exitY=0.5;exitDx=0;exitDy=0;" edge="1" parent="1">
          <mxGeometry width="50" height="50" relative="1" as="geometry">
            <mxPoint x="615" y="413.76" as="sourcePoint" />
            <mxPoint x="635" y="413.76" as="targetPoint" />
          </mxGeometry>
        </mxCell>
        <mxCell id="IpjYhmgJ4ee4G2J0kLjC-4" value="" style="endArrow=none;html=1;rounded=0;strokeWidth=2.5;strokeColor=white;exitX=1;exitY=0.5;exitDx=0;exitDy=0;" edge="1" parent="1">
          <mxGeometry width="50" height="50" relative="1" as="geometry">
            <mxPoint x="535" y="413.76" as="sourcePoint" />
            <mxPoint x="555" y="413.76" as="targetPoint" />
          </mxGeometry>
        </mxCell>
        <mxCell id="IpjYhmgJ4ee4G2J0kLjC-5" value="" style="shape=image;verticalLabelPosition=bottom;labelBackgroundColor=default;verticalAlign=top;aspect=fixed;imageAspect=0;image=data:image/svg+xml,PHN2ZyB4bWxucz0iaHR0cDovL3d3dy53My5vcmcvMjAwMC9zdmciIGZpbGw9Im5vbmUiIHZpZXdCb3g9IjAgMCA4MiA0MSIgaGVpZ2h0PSI0MSIgd2lkdGg9IjgyIj4mI3hhOzxwYXRoIGZpbGw9IndoaXRlIiBkPSJNNjAuNDE4OSA0MUM1Ny40MTYyIDQwLjk0NzkgNTQuNDY4IDQwLjE5NyA1MS44MTU5IDM4LjgwNzdDNDkuMTYzOCAzNy40MTg1IDQ2Ljg4MjYgMzUuNDMwOCA0NS4xNTgyIDMzLjAwNjZMMzAuMDIyMyAxMi45NjE1QzI5LjA1NzIgMTEuNTExMyAyNy43NDM3IDEwLjMxODYgMjYuMTk4NiA5LjQ4OTA1QzI0LjY1MzYgOC42NTk1MyAyMi45MjQ2IDguMjE4OTEgMjEuMTY1MyA4LjIwNjI5QzE5LjI2NjggOC40Mjg1NSAxNy40NTMzIDkuMTA5OTEgMTUuODg2MyAxMC4xODk4QzE0LjMxOTQgMTEuMjY5NyAxMy4wNDc0IDEyLjcxNDcgMTIuMTgzNiAxNC4zOTYyTDcuMTUyMTMgMjIuNTk0NkwwIDE4LjQ5NTRMNS4wMzE0NCAxMC4yOTY5QzYuNTYyOTUgNy40MjYxMyA4LjgwMDQ5IDQuOTgwMDEgMTEuNTM5MyAzLjE4MjQ3QzE0LjI3OCAxLjM4NDkzIDE3LjQzMDUgMC4yOTMzOTggMjAuNzA3OSAwLjAwNzg4ODg2QzIzLjg4MTMgLTAuMDgzNTIzMyAyNy4wMjYyIDAuNjIwNzYgMjkuODQ4MSAyLjA1NDY2QzMyLjY2OTkgMy40ODg2IDM1LjA3NjIgNS42MDUyMiAzNi44NDE4IDguMjA2MjlMNTIuMTQ0IDI4LjI1MTVDNTMuMTE0NSAyOS42NDMyIDU0LjQxMTEgMzAuNzgzNiA1NS45MjQyIDMxLjU3NTlDNTcuNDM3IDMyLjM2NzkgNTkuMTIxNSAzMi43ODg1IDYwLjgzNDcgMzIuODAxNkM2Mi43MzQ2IDMyLjU4MjcgNjQuNTQ5MiAzMS45MDI3IDY2LjExNjkgMzAuODIyNUM2Ny42ODQ1IDI5Ljc0MjQgNjguOTU1NyAyOC4yOTU0IDY5LjgxNjQgMjYuNjExOEw3NC44NDc5IDE4LjQxMzRMODIgMjIuNTEyNkw3Ni45Njg1IDMwLjcxMUM3NS40MzcxIDMzLjU4MTcgNzMuMTk5NSAzNi4wMjc3IDcwLjQ2MDkgMzcuODI1MkM2Ny43MjE5IDM5LjYyMjcgNjQuNTY5NiA0MC43MTQzIDYxLjI5MjEgNDFINjAuNDE4OVoiLz4mI3hhOzwvc3ZnPg==;" vertex="1" parent="1">
          <mxGeometry x="565" y="404" width="40" height="20" as="geometry" />
        </mxCell>
      </root>
    </mxGraphModel>
  </diagram>
</mxfile>
